<svg width="45" height="58" viewBox="0 0 45 58" fill="none" xmlns="http://www.w3.org/2000/svg">
<path d="M22.5456 0.0454102C28.4909 0.0524241 34.1908 2.41731 38.3948 6.62131C42.5988 10.8253 44.9637 16.5251 44.9707 22.4705C44.9778 27.329 43.3908 32.0558 40.453 35.9255C40.453 35.9255 39.8414 36.7308 39.7415 36.847L22.5456 57.1274L5.34142 36.8368C5.25171 36.7288 4.63808 35.9255 4.63808 35.9255L4.63604 35.9194C1.69977 32.0513 0.113468 27.3268 0.120441 22.4705C0.127453 16.5251 2.49234 10.8253 6.69635 6.62131C10.9004 2.41731 16.6002 0.0524241 22.5456 0.0454102ZM22.5456 30.6251C24.1584 30.6251 25.735 30.1468 27.076 29.2508C28.417 28.3547 29.4622 27.0812 30.0794 25.5911C30.6966 24.1011 30.8581 22.4615 30.5435 20.8796C30.2288 19.2978 29.4522 17.8448 28.3117 16.7043C27.1713 15.5639 25.7183 14.7873 24.1364 14.4726C22.5546 14.158 20.915 14.3194 19.4249 14.9366C17.9349 15.5539 16.6613 16.599 15.7653 17.9401C14.8692 19.2811 14.391 20.8577 14.391 22.4705C14.3937 24.6324 15.2537 26.705 16.7824 28.2337C18.3111 29.7624 20.3837 30.6224 22.5456 30.6251Z" fill="#75BF7A"/>
</svg>
